<?xml version="1.0" encoding="UTF-8"?>
<!-- Created with Inkscape (http://www.inkscape.org/) -->
<svg width="31.44mm" height="31.44mm" version="1.1" viewBox="0 0 31.44 31.44" xmlns="http://www.w3.org/2000/svg" xmlns:cc="http://creativecommons.org/ns#" xmlns:dc="http://purl.org/dc/elements/1.1/" xmlns:rdf="http://www.w3.org/1999/02/22-rdf-syntax-ns#">
 <metadata>
  <rdf:RDF>
   <cc:Work rdf:about="">
    <dc:format>image/svg+xml</dc:format>
    <dc:type rdf:resource="http://purl.org/dc/dcmitype/StillImage"/>
    <dc:title/>
   </cc:Work>
  </rdf:RDF>
 </metadata>
 <g transform="translate(-37.525 -210.5)">
  <circle cx="53.245" cy="226.22" r="15.72" fill="#e96c59" opacity=".8"/>
  <path d="m53.419 212.28c-2.0736-0.0217-4.1616 0.41684-6.0884 1.3285-4.4585 2.1095-7.4154 6.2656-7.9501 11.175-0.50808 4.6643 1.5269 9.4967 5.2044 12.359 2.066 1.6079 4.6873 2.6928 7.1183 2.9462 2.643 0.2755 5.2282-0.17492 7.6011-1.3243 1.9456-0.94242 3.6302-2.2856 4.9044-3.9102 3.2672-4.1658 3.8994-9.8451 1.6275-14.62-1.0934-2.298-2.6916-4.1431-4.8639-5.6154-2.245-1.5216-4.8872-2.3101-7.5533-2.338zm-0.0276 2.2048c2.2445 0.0235 4.4688 0.68733 6.3588 1.9683 1.8288 1.2395 3.1743 2.7928 4.0948 4.7274 1.9126 4.0198 1.3803 8.8011-1.3702 12.308-1.0727 1.3677-2.4908 2.4985-4.1288 3.2919-1.9976 0.96764-4.1741 1.3468-6.3992 1.1148-2.0466-0.21332-4.2533-1.1267-5.9926-2.4803-3.096-2.4094-4.8092-6.4777-4.3814-10.404 0.45017-4.1327 2.9394-7.6316 6.6928-9.4075 1.6221-0.76747 3.38-1.1367 5.1257-1.1184z" fill="#f9bbab" opacity=".8"/>
  <g fill="#fff">
   <rect x="50.933" y="217.52" width="4.6236" height="12.862" opacity=".8"/>
   <rect transform="scale(1,-1)" x="50.933" y="-234.92" width="4.6236" height="3.5749" opacity=".8"/>
   <rect x="50.933" y="217.52" width="4.6236" height="12.862" opacity=".8"/>
   <rect transform="scale(1,-1)" x="50.933" y="-234.92" width="4.6236" height="3.5749" opacity=".8"/>
  </g>
 </g>
</svg>
